<svg width="20" height="24" viewBox="0 0 20 24" fill="none" xmlns="http://www.w3.org/2000/svg" class='svg-icon'>
<path d="M19.625 17.2356C19.0986 18.4012 18.8468 18.9223 18.1707 19.9523C17.2261 21.3908 15.8924 23.1858 14.2435 23.1981C12.7769 23.2104 12.3983 22.2412 10.4079 22.257C8.41748 22.2667 8.00284 23.2157 6.53445 23.2008C4.88558 23.1858 3.62319 21.5686 2.67771 20.1328C0.0340697 16.1053 -0.244996 11.3849 1.3889 8.87334C2.54478 7.09242 4.37411 6.04659 6.09164 6.04659C7.84086 6.04659 8.9404 7.00791 10.3868 7.00791C11.79 7.00791 12.6448 6.04395 14.6678 6.04395C16.1979 6.04395 17.8159 6.87762 18.9718 8.31609C15.1899 10.3884 15.8044 15.7901 19.625 17.2356ZM13.1325 4.43646C13.8685 3.49186 14.4266 2.15904 14.2242 0.799805C13.0234 0.881676 11.6193 1.64845 10.7988 2.64146C10.0558 3.54556 9.43955 4.88895 9.67988 6.18832C10.9898 6.23058 12.3455 5.44972 13.1325 4.43646Z" fill="currentColor"/>
</svg>