<svg width="24" height="24" viewBox="0 0 24 24" fill="none" xmlns="http://www.w3.org/2000/svg">
<path fill-rule="evenodd" clip-rule="evenodd" d="M12.7993 14.6457H2.81119C2.38392 14.6457 1.97416 14.8163 1.67204 15.1198C1.36992 15.4233 1.2002 15.835 1.2002 16.2642C1.2002 16.6935 1.36992 17.1051 1.67204 17.4087C1.97416 17.7122 2.38392 17.8827 2.81119 17.8827H3.63923L3.17688 18.7097C3.07343 18.8953 3.00737 19.0995 2.98247 19.3107C2.95757 19.5219 2.97432 19.7359 3.03176 19.9406C3.08921 20.1453 3.18622 20.3367 3.31726 20.5037C3.4483 20.6707 3.61081 20.8102 3.7955 20.9141C3.98019 21.018 4.18345 21.0844 4.39367 21.1094C4.60389 21.1344 4.81696 21.1176 5.0207 21.0599C5.22445 21.0022 5.41489 20.9047 5.58115 20.7731C5.7474 20.6414 5.88622 20.4782 5.98967 20.2926L7.33162 17.8827H12.7993C13.2266 17.8827 13.6363 17.7122 13.9385 17.4087C14.2406 17.1051 14.4103 16.6935 14.4103 16.2642C14.4103 15.835 14.2406 15.4233 13.9385 15.1198C13.6363 14.8163 13.2266 14.6457 12.7993 14.6457ZM15.8489 9.80809C15.6508 9.4426 15.32 9.16784 14.9255 9.04092C14.5309 8.91399 14.1029 8.94465 13.7303 9.12653C13.3576 9.3084 13.069 9.6275 12.9245 10.0175C12.7799 10.4076 12.7905 10.8386 12.954 11.221L13.0377 11.391L17.9996 20.2926C18.2006 20.6525 18.5308 20.9217 18.9227 21.0452C19.3147 21.1686 19.7388 21.137 20.1083 20.9568C20.4778 20.7765 20.7648 20.4613 20.9107 20.0755C21.0565 19.6897 21.0502 19.2625 20.8929 18.8813L20.8092 18.7097L20.3484 17.8843H21.1765C21.5896 17.8876 21.9882 17.7313 22.2898 17.4477C22.5915 17.1642 22.7732 16.775 22.7974 16.3607C22.8216 15.9464 22.6865 15.5385 22.4199 15.2214C22.1533 14.9044 21.7756 14.7023 21.365 14.6571L21.1765 14.6457H18.5441L15.8489 9.80809ZM11.7892 2.52493C11.5911 2.15943 11.2603 1.88468 10.8658 1.75776C10.4712 1.63083 10.0432 1.66149 9.67056 1.84336C9.29792 2.02524 9.00935 2.34434 8.86479 2.73439C8.72023 3.12444 8.73079 3.55544 8.89428 3.93787L8.97644 4.10781L10.1476 6.20698L7.23657 11.4282C7.03402 11.7887 6.97667 12.2135 7.07632 12.6152C7.17597 13.0169 7.42503 13.3649 7.7723 13.5878C8.11956 13.8106 8.53862 13.8913 8.94329 13.8132C9.34795 13.7352 9.70746 13.5043 9.94787 13.1681L10.0494 13.0094L15.0112 4.10781C15.2165 3.74719 15.2759 3.32108 15.1771 2.91768C15.0783 2.51428 14.8289 2.1645 14.4805 1.94073C14.1321 1.71695 13.7114 1.63634 13.3055 1.71556C12.8996 1.79478 12.5396 2.02778 12.2999 2.36632L12.1984 2.52493L11.9938 2.89557L11.7892 2.52817V2.52493Z" fill="#703906"/>
</svg>
