<svg width="22" height="22" viewBox="0 0 22 22" fill="none" xmlns="http://www.w3.org/2000/svg">
<path fill-rule="evenodd" clip-rule="evenodd" d="M21.5 10.9995C21.4997 13.562 20.5626 16.036 18.865 17.9555C17.1675 19.8751 14.8268 21.1077 12.2836 21.4212L14.78 12.1047C14.9668 11.4679 14.9894 10.7942 14.8456 10.1463C14.7006 9.487 14.3872 8.87651 13.9361 8.37435H21.1692C21.3897 9.23195 21.5009 10.114 21.5 10.9995ZM0.500009 10.9995C0.499893 13.7679 1.59298 16.4243 3.54143 18.3908C5.48989 20.3573 8.13605 21.4747 10.9042 21.5L12.7758 14.5158C12.4752 14.6678 12.1563 14.7803 11.8269 14.8505C11.0622 15.0166 10.2653 14.9494 9.53919 14.6576C9.0229 14.4519 8.55626 14.1387 8.17025 13.7388L1.33082 6.89903C0.780788 8.19601 0.498207 9.59068 0.500009 10.9995ZM7.06775 10.7803L1.95426 5.66522C2.95001 3.97802 4.39773 2.60293 6.13386 1.69529C7.86999 0.787658 9.82534 0.383653 11.779 0.528921C13.7326 0.67419 15.6067 1.36294 17.1896 2.51737C18.7724 3.67179 20.0008 5.24587 20.7361 7.06179H11.0866C10.5223 7.04823 9.96168 7.15704 9.44338 7.38074C8.76918 7.6686 8.18919 8.13973 7.76927 8.74065C7.34935 9.34157 7.10631 10.0482 7.06775 10.7803ZM11 13.6246C11.6962 13.6246 12.3639 13.348 12.8562 12.8557C13.3484 12.3634 13.625 11.6957 13.625 10.9995C13.625 10.3033 13.3484 9.63554 12.8562 9.14323C12.3639 8.65093 11.6962 8.37435 11 8.37435C10.3038 8.37435 9.63613 8.65093 9.14385 9.14323C8.65157 9.63554 8.375 10.3033 8.375 10.9995C8.375 11.6957 8.65157 12.3634 9.14385 12.8557C9.63613 13.348 10.3038 13.6246 11 13.6246Z" fill="#703906"/>
</svg>
