<svg width="20" height="24" viewBox="0 0 20 24" fill="none" xmlns="http://www.w3.org/2000/svg">
<path fill-rule="evenodd" clip-rule="evenodd" d="M4.54079 0.490596C4.59062 0.440643 4.64981 0.40101 4.71498 0.373969C4.78014 0.346927 4.85001 0.333008 4.92056 0.333008C4.99112 0.333008 5.06098 0.346927 5.12615 0.373969C5.19131 0.40101 5.25051 0.440643 5.30033 0.490596L6.48578 1.67711C7.40496 1.14689 8.44778 0.868603 9.50893 0.870367H10.2663C11.3283 0.868501 12.3719 1.14717 13.2916 1.67819L14.4792 0.490596C14.5799 0.390016 14.7165 0.333568 14.8588 0.333668C15.0012 0.333769 15.1376 0.39041 15.2382 0.491132C15.3388 0.591854 15.3952 0.728405 15.3951 0.870746C15.395 1.01309 15.3384 1.14956 15.2377 1.25014L14.1821 2.30577C14.8542 2.87404 15.3942 3.58224 15.7643 4.38088C16.1343 5.17952 16.3255 6.04934 16.3244 6.92955C16.3242 7.0298 16.2841 7.12585 16.2131 7.19663C16.1421 7.26742 16.046 7.30717 15.9457 7.30717H3.82952C3.72909 7.30717 3.63276 7.26727 3.56174 7.19625C3.49072 7.12523 3.45082 7.02891 3.45082 6.92847C3.45082 5.07467 4.28332 3.41505 5.59643 2.3047L4.54079 1.25014C4.49084 1.20031 4.4512 1.14112 4.42416 1.07595C4.39712 1.01078 4.3832 0.940922 4.3832 0.870367C4.3832 0.799812 4.39712 0.72995 4.42416 0.664782C4.4512 0.599615 4.49084 0.540423 4.54079 0.490596ZM8.27843 4.35697C8.27843 4.57036 8.19366 4.77502 8.04277 4.92591C7.89187 5.0768 7.68722 5.16157 7.47383 5.16157C7.26043 5.16157 7.05578 5.0768 6.90489 4.92591C6.754 4.77502 6.66923 4.57036 6.66923 4.35697C6.66923 4.14358 6.754 3.93892 6.90489 3.78803C7.05578 3.63714 7.26043 3.55237 7.47383 3.55237C7.68722 3.55237 7.89187 3.63714 8.04277 3.78803C8.19366 3.93892 8.27843 4.14358 8.27843 4.35697ZM12.2735 5.16157C12.4869 5.16157 12.6916 5.0768 12.8425 4.92591C12.9934 4.77502 13.0781 4.57036 13.0781 4.35697C13.0781 4.14358 12.9934 3.93892 12.8425 3.78803C12.6916 3.63714 12.4869 3.55237 12.2735 3.55237C12.0601 3.55237 11.8555 3.63714 11.7046 3.78803C11.5537 3.93892 11.4689 4.14358 11.4689 4.35697C11.4689 4.57036 11.5537 4.77502 11.7046 4.92591C11.8555 5.0768 12.0601 5.16157 12.2735 5.16157Z" fill="white"/>
<path d="M1.30522 8.32311C1.0207 8.32311 0.747827 8.43614 0.546638 8.63733C0.345449 8.83852 0.232422 9.11139 0.232422 9.39591V15.8327C0.232422 16.1172 0.345449 16.3901 0.546638 16.5913C0.747827 16.7925 1.0207 16.9055 1.30522 16.9055C1.58975 16.9055 1.86262 16.7925 2.06381 16.5913C2.265 16.3901 2.37802 16.1172 2.37802 15.8327V9.39591C2.37802 9.11139 2.265 8.83852 2.06381 8.63733C1.86262 8.43614 1.58975 8.32311 1.30522 8.32311ZM4.52362 8.32311C4.2391 8.32311 3.96623 8.43614 3.76504 8.63733C3.56385 8.83852 3.45082 9.11139 3.45082 9.39591V19.0511C3.45082 19.3356 3.56385 19.6085 3.76504 19.8097C3.96623 20.0109 4.2391 20.1239 4.52362 20.1239H15.2516C15.5362 20.1239 15.809 20.0109 16.0102 19.8097C16.2114 19.6085 16.3244 19.3356 16.3244 19.0511V9.39591C16.3244 9.11139 16.2114 8.83852 16.0102 8.63733C15.809 8.43614 15.5362 8.32311 15.2516 8.32311H4.52362ZM17.6225 9.39591C17.6225 9.11139 17.7355 8.83852 17.9367 8.63733C18.1379 8.43614 18.4108 8.32311 18.6953 8.32311C18.9798 8.32311 19.2527 8.43614 19.4539 8.63733C19.6551 8.83852 19.7681 9.11139 19.7681 9.39591V15.8327C19.7681 16.1172 19.6551 16.3901 19.4539 16.5913C19.2527 16.7925 18.9798 16.9055 18.6953 16.9055C18.4108 16.9055 18.1379 16.7925 17.9367 16.5913C17.7355 16.3901 17.6225 16.1172 17.6225 15.8327V9.39591ZM5.37436 21.2536C5.33299 21.2536 5.29202 21.2617 5.25382 21.2776C5.21561 21.2935 5.18091 21.3167 5.15171 21.346C5.12251 21.3753 5.09938 21.4101 5.08364 21.4484C5.06791 21.4866 5.05988 21.5276 5.06003 21.569V21.79C5.06003 22.2879 5.25782 22.7654 5.6099 23.1175C5.96198 23.4696 6.43951 23.6674 6.93743 23.6674C7.43534 23.6674 7.91287 23.4696 8.26495 23.1175C8.61703 22.7654 8.81483 22.2879 8.81483 21.79V21.569C8.81497 21.5276 8.80694 21.4866 8.79121 21.4484C8.77548 21.4101 8.75235 21.3753 8.72314 21.346C8.69394 21.3167 8.65924 21.2935 8.62103 21.2776C8.58283 21.2617 8.54187 21.2536 8.5005 21.2536H5.37436ZM10.9604 21.569C10.9604 21.3941 11.101 21.2536 11.2748 21.2536H14.3998C14.5747 21.2536 14.7152 21.3941 14.7152 21.569V21.79C14.7152 22.2879 14.5174 22.7654 14.1654 23.1175C13.8133 23.4696 13.3357 23.6674 12.8378 23.6674C12.3399 23.6674 11.8624 23.4696 11.5103 23.1175C11.1582 22.7654 10.9604 22.2879 10.9604 21.79V21.569Z" fill="white"/>
</svg>
