<svg width="24" height="22" viewBox="0 0 24 22" fill="none" xmlns="http://www.w3.org/2000/svg">
<path fill-rule="evenodd" clip-rule="evenodd" d="M12.8629 14.5055H2.07327C1.61173 14.5055 1.16908 14.6897 0.84272 15.0176C0.516356 15.3454 0.333008 15.7901 0.333008 16.2538C0.333008 16.7175 0.516356 17.1622 0.84272 17.4901C1.16908 17.818 1.61173 18.0022 2.07327 18.0022H2.96777L2.46831 18.8956C2.35656 19.096 2.2852 19.3166 2.2583 19.5448C2.2314 19.7729 2.2495 20.0042 2.31155 20.2253C2.37361 20.4464 2.4784 20.6531 2.61996 20.8335C2.76152 21.0139 2.93707 21.1646 3.13658 21.2769C3.33609 21.3891 3.55566 21.4608 3.78275 21.4879C4.00984 21.5149 4.24 21.4967 4.4601 21.4344C4.6802 21.372 4.88592 21.2667 5.06552 21.1245C5.24511 20.9823 5.39507 20.8059 5.50682 20.6055L6.95646 18.0022H12.8629C13.3245 18.0022 13.7671 17.818 14.0935 17.4901C14.4198 17.1622 14.6032 16.7175 14.6032 16.2538C14.6032 15.7901 14.4198 15.3454 14.0935 15.0176C13.7671 14.6897 13.3245 14.5055 12.8629 14.5055ZM16.1573 9.27963C15.9432 8.8848 15.5859 8.588 15.1597 8.45089C14.7335 8.31378 14.2711 8.3469 13.8686 8.54337C13.466 8.73984 13.1543 9.08455 12.9981 9.50589C12.842 9.92724 12.8534 10.3928 13.03 10.8059L13.1205 10.9895L18.4805 20.6055C18.6976 20.9943 19.0543 21.2851 19.4777 21.4185C19.9011 21.5518 20.3592 21.5177 20.7584 21.3229C21.1576 21.1282 21.4676 20.7877 21.6252 20.371C21.7827 19.9542 21.7759 19.4928 21.606 19.0809L21.5155 18.8956L21.0178 18.0039H21.9123C22.3586 18.0075 22.7891 17.8387 23.115 17.5323C23.4409 17.226 23.6372 16.8056 23.6633 16.358C23.6895 15.9105 23.5435 15.4699 23.2555 15.1274C22.9675 14.7849 22.5595 14.5666 22.1159 14.5177L21.9123 14.5055H19.0687L16.1573 9.27963ZM11.7718 1.41202C11.5577 1.01719 11.2005 0.720392 10.7742 0.583281C10.348 0.446171 9.88563 0.479289 9.48309 0.675756C9.08055 0.872223 8.76882 1.21693 8.61266 1.63828C8.4565 2.05963 8.46791 2.52522 8.64452 2.93834L8.73328 3.12191L9.99845 5.38953L6.85379 11.0297C6.63498 11.4192 6.57303 11.878 6.68067 12.312C6.78832 12.7459 7.05737 13.1219 7.4325 13.3626C7.80763 13.6033 8.26032 13.6905 8.69746 13.6062C9.1346 13.5218 9.52295 13.2724 9.78266 12.9092L9.89229 12.7379L15.2523 3.12191C15.4741 2.73236 15.5382 2.27205 15.4315 1.83628C15.3248 1.40052 15.0554 1.02266 14.679 0.780931C14.3027 0.539203 13.8482 0.452115 13.4098 0.537697C12.9713 0.623278 12.5823 0.874974 12.3234 1.24068L12.2138 1.41202L11.9928 1.81239L11.7718 1.41552V1.41202Z" fill="white"/>
</svg>
